<?xml version="1.0" encoding="UTF-8" ?>
<!DOCTYPE svg PUBLIC "-//W3C//DTD SVG 1.1//EN" "http://www.w3.org/Graphics/SVG/1.1/DTD/svg11.dtd">
<svg width="600pt" height="221pt" viewBox="0 0 600 221" version="1.1" xmlns="http://www.w3.org/2000/svg">
<path fill="#ffffff" d=" M 0.00 0.00 L 600.00 0.00 L 600.00 221.00 L 0.00 221.00 L 0.00 0.00 Z" />
<path fill="#ef3641" d=" M 160.86 37.98 C 163.81 35.05 168.32 36.66 172.00 36.30 C 181.14 36.78 191.13 34.75 199.47 39.49 C 205.28 42.57 207.52 49.67 206.62 55.88 C 206.14 62.46 202.68 68.25 199.02 73.55 C 202.02 73.64 205.02 73.66 208.02 73.69 C 207.66 78.04 207.14 82.37 206.19 86.64 C 205.54 86.63 204.24 86.60 203.59 86.59 C 203.13 83.85 202.50 81.13 201.61 78.50 C 197.52 77.13 192.63 77.19 189.92 81.06 C 188.26 85.63 187.51 90.52 187.22 95.37 C 190.20 95.21 193.39 95.52 196.17 94.19 C 197.97 92.16 199.17 89.52 201.75 88.31 C 201.83 94.41 200.31 100.38 198.92 106.28 C 198.11 106.41 196.50 106.68 195.69 106.81 C 195.61 104.65 195.56 102.49 195.47 100.33 C 192.22 99.72 188.90 99.64 185.61 99.82 C 184.31 105.97 182.91 112.11 182.18 118.36 C 186.59 119.98 191.73 120.18 195.96 117.93 C 198.95 116.02 200.25 112.54 202.21 109.74 C 203.06 109.62 204.76 109.37 205.61 109.24 C 204.44 114.17 202.41 118.82 200.36 123.43 C 188.89 123.52 177.43 123.41 165.96 123.50 C 164.17 123.43 161.99 123.81 160.99 121.91 C 163.01 120.42 165.61 119.98 167.61 118.50 C 169.30 116.46 169.65 113.69 170.35 111.22 C 172.20 102.60 174.46 94.06 175.89 85.36 C 166.33 86.54 156.68 86.37 147.07 86.07 C 147.96 81.77 153.97 83.29 155.16 79.28 C 158.10 71.33 159.85 62.99 162.27 54.87 C 163.38 50.33 165.20 45.87 165.29 41.14 C 163.91 39.95 162.36 39.00 160.86 37.98 Z" />
<path fill="#ef3641" d=" M 222.54 46.44 C 224.86 43.36 226.04 38.67 230.34 37.84 C 231.59 44.98 231.90 52.24 232.89 59.41 C 233.20 62.00 234.74 64.14 236.08 66.29 C 231.66 66.43 227.23 66.41 222.80 66.31 C 225.41 64.36 226.30 61.45 225.80 58.30 C 223.31 58.30 220.83 58.31 218.34 58.32 C 217.53 59.87 216.69 61.40 215.88 62.95 C 216.64 64.06 217.40 65.16 218.15 66.27 C 214.87 66.40 211.59 66.40 208.31 66.19 C 214.49 60.74 217.91 53.10 222.54 46.44 Z" />
<path fill="#ef3641" d=" M 262.50 38.14 C 270.21 38.85 277.98 38.54 285.71 38.30 C 285.07 41.18 284.48 44.07 283.89 46.96 C 283.04 45.17 282.32 43.31 281.29 41.60 C 279.84 41.23 278.34 41.14 276.86 40.94 C 275.44 48.32 273.63 55.62 272.31 63.02 C 273.36 64.08 274.41 65.14 275.44 66.22 C 271.23 66.44 266.99 66.54 262.80 65.95 C 267.32 58.46 267.52 49.41 269.69 41.13 C 268.21 41.19 266.74 41.27 265.27 41.35 C 263.75 43.17 262.18 44.94 260.44 46.54 C 260.79 43.67 261.56 40.87 262.50 38.14 Z" />
<path fill="#ef3641" d=" M 297.49 38.79 C 300.23 38.08 303.13 38.07 305.94 38.37 C 309.59 38.81 312.56 41.95 313.20 45.51 C 314.96 54.54 308.53 64.14 299.70 66.38 C 296.92 66.80 294.06 66.88 291.28 66.40 C 287.85 65.52 284.69 62.56 284.49 58.88 C 283.38 50.23 289.25 41.43 297.49 38.79 Z" />
<path fill="#ef3641" d=" M 243.84 38.54 C 248.10 38.49 252.36 38.45 256.62 38.70 C 255.02 40.31 252.69 41.55 252.34 44.02 C 250.81 50.48 249.62 57.03 248.40 63.55 C 250.59 63.67 252.82 63.88 255.02 63.59 C 256.91 62.23 258.32 60.34 260.00 58.75 L 260.73 59.12 C 260.18 61.64 259.06 63.98 258.09 66.36 C 250.95 66.31 243.81 66.49 236.67 66.27 C 238.32 64.66 240.87 63.59 241.41 61.15 C 242.88 55.73 243.89 50.20 245.17 44.74 C 245.88 42.56 244.42 40.56 243.84 38.54 Z" />
<path fill="#ef3641" d=" M 319.70 38.56 C 322.46 38.53 325.24 38.38 328.00 38.63 C 332.21 43.81 334.22 50.40 337.83 56.00 C 339.20 51.41 340.39 46.77 341.45 42.10 C 340.15 41.00 338.85 39.91 337.59 38.77 C 341.30 38.42 345.03 38.44 348.74 38.77 C 347.37 39.79 346.00 40.79 344.59 41.74 C 341.62 49.82 340.10 58.32 337.68 66.56 C 336.53 66.56 335.39 66.57 334.25 66.59 C 330.72 60.04 327.57 53.29 323.89 46.83 C 322.18 52.12 320.78 57.50 319.43 62.89 C 320.76 63.99 322.12 65.07 323.43 66.22 C 319.84 66.41 316.24 66.40 312.66 66.29 C 314.57 64.34 316.80 62.47 317.55 59.72 C 319.16 54.75 320.58 49.70 321.76 44.61 C 322.38 42.34 320.56 40.48 319.70 38.56 Z" />
<path fill="#ffffff" d=" M 179.18 40.31 C 182.86 40.31 187.34 39.77 190.01 42.91 C 194.00 47.68 193.35 54.38 191.99 60.01 C 190.75 64.64 189.40 69.50 186.22 73.21 C 181.51 74.39 176.34 72.66 171.77 74.85 C 173.37 76.08 175.02 77.24 176.68 78.39 C 176.65 79.46 176.63 80.53 176.62 81.61 C 174.34 81.66 172.05 81.65 169.76 81.62 C 169.35 79.41 169.01 77.11 169.71 74.91 C 172.78 63.36 175.59 51.72 179.18 40.31 Z" />
<path fill="#ffffff" d=" M 298.52 41.34 C 301.04 38.93 305.50 40.76 305.55 44.26 C 306.24 50.48 304.91 57.04 301.21 62.16 C 299.82 64.10 297.41 65.07 295.07 64.51 C 293.56 63.45 292.27 61.84 292.30 59.90 C 291.78 53.33 293.18 45.74 298.52 41.34 Z" />
<path fill="#ffffff" d=" M 220.20 55.39 C 221.49 52.84 222.86 50.34 224.32 47.88 C 224.79 50.40 225.23 52.92 225.66 55.45 C 223.84 55.45 222.02 55.43 220.20 55.39 Z" />
<path fill="#ef3641" d=" M 245.53 78.38 C 253.34 78.84 261.20 78.90 269.00 78.37 C 268.69 81.41 268.27 84.48 267.01 87.30 C 266.22 85.34 265.51 83.34 264.77 81.36 C 263.29 81.35 261.81 81.35 260.34 81.34 C 258.87 88.74 256.79 96.04 256.02 103.55 C 257.18 104.45 258.35 105.34 259.50 106.27 C 254.34 106.65 249.14 106.69 243.98 106.25 C 245.79 104.70 248.57 103.74 248.98 101.08 C 250.46 94.43 252.22 87.80 252.91 81.01 C 248.64 80.70 246.46 84.36 244.05 87.19 C 244.37 84.22 244.92 81.30 245.53 78.38 Z" />
<path fill="#ef3641" d=" M 297.18 78.67 C 302.42 78.82 307.66 78.51 312.90 78.79 C 315.62 79.03 319.12 80.72 318.58 83.99 C 319.04 88.56 314.62 91.19 311.66 93.82 C 312.98 98.35 314.59 102.84 317.49 106.63 C 314.20 106.34 309.88 107.49 307.69 104.26 C 306.06 101.16 305.62 97.61 304.35 94.38 C 302.43 96.18 301.74 99.99 301.25 103.18 C 302.21 104.25 303.19 105.31 304.15 106.40 C 299.34 106.56 294.53 106.56 289.72 106.40 C 291.87 104.73 294.61 103.25 295.13 100.31 C 296.41 95.18 297.71 90.06 298.94 84.92 C 299.90 82.63 298.06 80.65 297.18 78.67 Z" />
<path fill="#ef3641" d=" M 325.09 78.67 C 329.97 78.79 334.86 78.48 339.73 78.84 C 342.43 79.32 346.07 80.78 345.78 84.11 C 346.41 87.86 344.66 91.44 341.59 93.56 C 338.64 96.29 334.43 95.62 330.77 95.59 C 330.27 98.10 329.72 100.60 329.20 103.11 C 330.44 104.18 331.70 105.23 332.93 106.32 C 328.00 106.64 323.05 106.58 318.12 106.31 C 319.84 104.70 322.25 103.42 322.70 100.88 C 323.95 95.87 324.96 90.79 326.21 85.77 C 327.00 83.32 325.87 80.95 325.09 78.67 Z" />
<path fill="#ef3641" d=" M 376.09 78.67 C 380.63 78.72 385.17 78.67 389.72 78.71 C 389.55 78.98 389.23 79.51 389.06 79.78 C 387.89 81.12 386.06 82.09 385.83 84.01 C 384.65 90.32 384.45 96.77 383.43 103.11 C 384.56 104.17 385.70 105.21 386.81 106.31 C 381.88 106.61 376.92 106.71 372.01 106.18 C 373.39 105.33 374.77 104.47 376.20 103.68 C 376.83 97.42 377.90 91.20 378.65 84.96 C 379.22 82.48 377.27 80.61 376.09 78.67 Z" />
<path fill="#ef3641" d=" M 443.52 80.47 C 447.20 77.41 452.25 78.62 456.62 78.89 C 456.65 81.52 456.59 84.16 456.30 86.78 C 454.03 84.38 452.62 79.27 448.52 80.49 C 446.76 81.52 445.16 83.74 445.81 85.82 C 447.98 88.54 451.53 89.58 454.02 91.94 C 456.37 93.73 455.98 97.07 455.47 99.62 C 454.25 104.72 448.56 106.73 443.91 107.30 C 441.38 107.18 438.41 106.86 436.57 104.93 C 436.29 102.39 436.55 99.84 436.81 97.32 C 438.64 99.77 440.17 102.50 442.45 104.59 C 446.14 105.92 450.14 103.11 449.47 99.08 C 447.72 95.93 443.84 95.07 441.39 92.62 C 437.64 89.27 439.85 83.00 443.52 80.47 Z" />
<path fill="#ef3641" d=" M 215.03 78.83 C 217.98 78.73 220.95 78.50 223.90 78.83 C 225.52 79.67 226.26 81.42 227.12 82.92 C 229.39 87.40 231.52 91.95 234.12 96.25 C 235.36 91.89 236.88 87.57 237.32 83.04 C 236.77 81.27 235.07 80.18 233.96 78.78 C 237.45 78.68 240.94 78.67 244.43 78.80 C 242.63 80.60 240.50 82.33 239.87 84.93 C 237.73 92.10 235.98 99.38 234.01 106.60 C 232.76 106.59 231.50 106.59 230.25 106.60 C 226.78 100.04 223.94 93.14 219.96 86.86 C 218.66 92.54 216.58 98.08 216.19 103.95 C 217.47 104.59 218.73 105.30 219.96 106.06 C 215.90 106.79 211.76 106.62 207.67 106.22 C 209.15 105.41 210.67 104.68 212.20 103.96 C 215.02 97.14 216.59 89.91 218.66 82.85 C 217.46 81.50 216.23 80.17 215.03 78.83 Z" />
<path fill="#ef3641" d=" M 272.05 78.75 C 278.53 78.65 285.02 78.71 291.51 78.72 C 291.23 81.41 290.83 84.08 290.25 86.72 C 289.47 84.84 288.42 83.12 287.35 81.41 C 285.40 81.36 283.45 81.36 281.51 81.34 C 280.85 84.41 280.32 87.51 280.09 90.65 C 281.56 90.63 283.04 90.62 284.52 90.59 C 285.77 89.21 287.04 87.86 288.40 86.59 C 287.86 90.43 287.10 94.24 285.97 97.95 C 285.30 96.48 284.70 94.98 284.11 93.48 C 282.46 93.49 280.81 93.37 279.16 93.39 C 278.32 96.95 276.94 100.61 277.69 104.32 C 279.44 104.37 281.21 104.69 282.96 104.38 C 285.73 102.93 287.51 100.23 289.91 98.31 C 289.43 101.15 288.51 103.88 287.42 106.54 C 280.06 106.38 272.69 106.74 265.34 106.29 C 267.07 104.82 269.74 103.97 270.21 101.46 C 271.60 95.89 272.81 90.26 273.78 84.61 C 274.25 82.45 272.94 80.58 272.05 78.75 Z" />
<path fill="#ef3641" d=" M 351.22 78.76 C 357.68 78.90 364.42 77.89 370.63 80.10 C 372.95 80.87 373.05 83.75 372.77 85.78 C 372.32 89.44 368.60 91.07 366.29 93.46 C 366.36 98.35 369.30 102.57 371.75 106.59 C 368.44 106.37 363.95 107.57 361.92 104.09 C 360.31 100.87 359.65 97.25 358.12 93.99 C 357.11 96.61 356.10 99.27 355.64 102.06 C 356.11 103.68 357.14 105.06 357.98 106.50 C 353.27 106.51 348.56 106.54 343.85 106.41 C 345.69 104.86 348.38 103.84 348.96 101.24 C 350.51 95.51 352.17 89.78 353.50 83.99 C 354.06 81.89 352.16 80.39 351.22 78.76 Z" />
<path fill="#ef3641" d=" M 393.48 88.11 C 393.43 83.68 396.89 79.98 400.95 78.68 C 404.12 78.27 407.32 78.60 410.50 78.80 C 410.48 81.14 410.44 83.49 410.39 85.84 C 409.98 85.79 409.18 85.70 408.77 85.66 C 407.44 83.75 406.99 79.92 403.99 80.41 C 401.21 80.27 398.31 84.10 400.34 86.51 C 403.06 89.22 407.36 90.17 409.33 93.64 C 411.40 99.07 407.57 105.10 402.13 106.44 C 398.23 107.16 394.15 106.85 390.42 105.49 C 390.49 102.77 390.57 100.05 390.86 97.34 C 392.67 99.80 394.20 102.50 396.45 104.60 C 399.53 105.55 403.00 104.08 403.45 100.66 C 404.11 97.74 400.89 96.43 398.96 95.08 C 396.50 93.48 392.99 91.58 393.48 88.11 Z" />
<path fill="#ef3641" d=" M 417.03 78.74 C 423.52 78.68 430.02 78.67 436.51 78.74 C 436.10 81.39 435.61 84.03 434.99 86.64 C 434.27 84.82 433.26 83.14 432.23 81.48 C 430.35 81.41 428.48 81.36 426.61 81.32 C 425.87 84.44 425.14 87.56 424.35 90.66 C 426.07 90.63 427.79 90.61 429.53 90.57 C 430.64 89.24 431.77 87.91 432.96 86.63 C 432.82 90.02 432.34 93.37 431.64 96.68 C 431.19 96.70 430.28 96.73 429.83 96.75 C 429.54 95.63 429.24 94.52 428.94 93.41 C 427.31 93.41 425.68 93.41 424.06 93.42 C 423.38 97.01 421.65 100.65 422.64 104.34 C 424.37 104.42 426.14 104.68 427.87 104.35 C 430.57 102.86 432.46 100.33 434.82 98.41 C 434.26 101.10 433.55 103.81 432.23 106.25 C 424.70 106.76 417.10 106.63 409.57 106.21 C 411.10 105.41 412.68 104.69 414.26 103.97 C 416.09 97.68 417.48 91.26 418.64 84.82 C 419.21 82.61 417.90 80.66 417.03 78.74 Z" />
<path fill="#ffffff" d=" M 306.49 81.32 C 307.89 81.36 309.29 81.40 310.71 81.45 C 312.71 86.45 309.72 92.45 304.20 93.11 C 304.29 89.07 305.42 85.18 306.49 81.32 Z" />
<path fill="#ffffff" d=" M 334.28 81.05 C 335.71 81.38 337.16 81.67 338.59 82.04 C 338.62 85.48 338.69 89.42 336.08 92.04 C 334.63 93.18 332.27 95.04 331.61 92.16 C 332.17 88.39 333.22 84.71 334.28 81.05 Z" />
<path fill="#ffffff" d=" M 361.05 81.11 C 362.61 81.32 364.14 81.72 365.69 81.97 C 366.44 86.84 363.94 92.74 358.34 92.91 C 358.75 88.88 359.82 84.96 361.05 81.11 Z" />
<path fill="#fcf006" d=" M 217.70 129.04 C 228.37 124.30 238.49 118.35 249.18 113.66 C 256.22 113.07 263.31 113.67 270.37 113.44 C 270.35 113.77 270.32 114.41 270.30 114.74 C 254.75 121.86 239.61 129.84 224.19 137.24 C 197.34 150.33 170.71 163.89 143.76 176.80 C 143.74 176.98 143.70 177.35 143.68 177.54 C 136.00 177.57 128.31 178.02 120.63 177.51 C 124.99 174.27 129.98 172.09 134.84 169.76 C 147.12 163.54 159.44 157.39 172.01 151.79 C 179.20 148.41 186.04 144.33 193.33 141.17 C 201.67 137.56 209.38 132.69 217.70 129.04 Z" />
<path fill="#221e1f" d=" M 270.37 113.44 C 289.27 113.33 308.18 113.45 327.08 113.37 C 328.40 113.52 329.92 113.09 331.11 113.84 C 336.26 117.32 341.97 119.80 347.56 122.47 C 365.16 131.27 382.84 139.91 400.48 148.64 C 406.23 151.53 411.94 154.52 417.86 157.04 C 418.35 157.38 419.33 158.05 419.82 158.39 C 420.37 158.49 421.48 158.69 422.03 158.80 C 422.50 159.16 423.43 159.90 423.89 160.27 C 435.74 165.86 447.33 172.04 459.29 177.39 C 365.86 177.47 272.43 177.41 179.00 177.43 C 167.23 177.51 155.45 177.23 143.68 177.54 C 143.70 177.35 143.74 176.98 143.76 176.80 C 170.71 163.89 197.34 150.33 224.19 137.24 C 239.61 129.84 254.75 121.86 270.30 114.74 C 270.32 114.41 270.35 113.77 270.37 113.44 Z" />
<path fill="#fcf006" d=" M 331.11 113.84 C 337.41 113.18 343.75 113.48 350.07 113.48 C 352.46 113.34 354.51 114.68 356.59 115.65 C 361.20 117.99 365.97 120.03 370.51 122.53 C 380.84 128.38 391.93 132.71 402.40 138.32 C 426.31 149.33 449.52 161.80 473.44 172.77 C 475.85 173.76 477.89 175.40 479.50 177.44 C 472.78 177.69 465.99 178.04 459.29 177.39 C 447.33 172.04 435.74 165.86 423.89 160.27 C 423.43 159.90 422.50 159.16 422.03 158.80 C 421.48 158.69 420.37 158.49 419.82 158.39 C 419.33 158.05 418.35 157.38 417.86 157.04 C 411.94 154.52 406.23 151.53 400.48 148.64 C 382.84 139.91 365.16 131.27 347.56 122.47 C 341.97 119.80 336.26 117.32 331.11 113.84 Z" />
<path fill="#ffffff" d=" M 298.72 114.45 C 299.71 114.40 301.70 114.31 302.70 114.26 C 303.65 117.29 303.54 120.49 303.68 123.63 C 301.60 123.60 299.53 123.57 297.47 123.51 C 297.95 120.49 298.50 117.49 298.72 114.45 Z" />
<path fill="#ffffff" d=" M 295.37 144.72 C 297.00 138.12 296.12 131.24 297.91 124.67 C 300.07 124.63 302.23 124.83 304.37 125.15 C 304.49 128.53 304.63 131.91 304.72 135.29 C 302.15 135.25 299.58 135.21 297.01 135.15 L 297.07 136.33 C 299.85 136.25 302.63 136.19 305.41 136.25 C 305.55 139.04 305.66 141.82 305.72 144.61 C 302.26 144.61 298.82 144.69 295.37 144.72 Z" />
<path fill="#ffffff" d=" M 294.37 154.66 C 294.90 151.69 294.82 148.48 296.02 145.69 C 299.45 145.48 302.89 145.58 306.33 145.63 C 306.56 148.86 306.74 152.10 306.75 155.34 C 302.62 155.30 298.39 155.84 294.37 154.66 Z" />
<path fill="#ffffff" d=" M 293.37 166.35 C 293.58 162.98 294.23 159.67 294.55 156.31 C 298.73 156.23 302.92 156.17 307.10 156.27 C 307.70 159.61 307.83 163.00 307.80 166.38 C 302.99 166.39 298.18 166.38 293.37 166.35 Z" />
<path fill="#ef3641" d=" M 417.86 157.04 C 418.35 157.38 419.33 158.05 419.82 158.39 C 419.33 158.05 418.35 157.38 417.86 157.04 Z" />
<path fill="#ef3641" d=" M 422.03 158.80 C 422.50 159.16 423.43 159.90 423.89 160.27 C 423.43 159.90 422.50 159.16 422.03 158.80 Z" />
<path fill="#ffffff" d=" M 293.47 167.40 C 298.43 167.38 303.39 167.33 308.35 167.48 C 308.58 170.48 308.78 173.48 308.94 176.48 C 303.38 176.56 297.82 176.59 292.26 176.45 C 292.68 173.43 293.19 170.43 293.47 167.40 Z" />
<path fill="#ef3641" d=" M 148.42 185.47 C 148.93 185.41 149.95 185.28 150.45 185.21 C 152.20 193.24 150.35 202.27 154.87 209.51 C 151.59 209.49 148.31 209.49 145.03 209.55 C 146.58 207.46 147.57 205.06 147.33 202.42 C 145.23 202.39 143.14 202.36 141.05 202.36 C 139.84 204.67 139.45 207.16 140.64 209.58 C 138.11 209.49 135.57 209.47 133.04 209.45 C 137.60 205.94 139.91 200.56 142.63 195.67 C 144.49 192.23 146.48 188.86 148.42 185.47 Z" />
<path fill="#ef3641" d=" M 162.12 198.83 C 156.60 195.73 159.46 186.33 165.25 185.37 C 167.62 185.04 170.01 185.40 172.37 185.63 C 172.32 187.90 172.21 190.16 172.03 192.42 C 170.83 190.70 169.63 188.99 168.43 187.27 C 167.40 187.26 166.37 187.24 165.34 187.23 C 164.62 188.57 163.91 189.91 163.21 191.26 C 166.29 194.53 172.60 196.47 171.47 202.01 C 171.36 208.19 163.93 212.02 158.62 209.40 C 155.25 208.49 157.11 204.18 156.84 201.69 C 158.76 204.01 159.98 207.31 162.95 208.48 C 165.59 207.94 167.60 204.74 166.22 202.22 C 165.05 200.87 163.51 199.92 162.12 198.83 Z" />
<path fill="#ef3641" d=" M 198.25 185.42 C 201.54 185.47 204.83 185.48 208.12 185.50 C 205.34 188.25 204.27 192.01 203.76 195.78 C 205.99 195.79 208.21 195.77 210.44 195.73 C 211.22 192.34 212.27 188.73 210.42 185.48 C 213.71 185.45 217.00 185.45 220.29 185.57 C 215.54 189.98 215.75 196.92 214.05 202.74 C 213.18 205.04 213.78 207.39 214.82 209.52 C 211.47 209.49 208.12 209.49 204.78 209.44 C 208.25 206.67 208.88 202.23 209.62 198.15 C 207.41 198.15 205.21 198.18 203.01 198.23 C 201.88 201.90 201.02 205.72 201.79 209.57 C 198.81 209.49 195.83 209.46 192.85 209.42 C 197.19 204.44 197.56 197.58 199.36 191.51 C 200.22 189.37 199.12 187.33 198.25 185.42 Z" />
<path fill="#ef3641" d=" M 257.18 185.37 C 263.10 185.49 269.03 185.61 274.95 185.27 C 274.72 187.57 274.53 189.88 274.31 192.19 C 273.09 190.26 271.74 188.41 269.96 186.97 C 267.41 189.22 267.65 192.96 266.93 196.05 C 266.53 200.55 263.77 205.51 267.10 209.51 C 263.63 209.50 260.15 209.50 256.68 209.45 C 258.56 207.52 260.13 205.26 260.42 202.51 C 261.24 197.34 262.53 192.23 262.87 187.00 C 260.08 187.94 257.93 189.82 256.10 192.08 C 256.45 189.84 256.79 187.60 257.18 185.37 Z" />
<path fill="#ef3641" d=" M 310.29 185.43 C 310.84 185.36 311.96 185.24 312.52 185.17 C 313.54 193.28 313.12 201.74 316.13 209.47 C 313.08 209.49 310.05 209.49 307.01 209.50 C 308.58 207.42 308.93 204.90 308.89 202.36 C 306.92 202.34 304.94 202.33 302.97 202.33 C 302.14 204.66 301.49 207.06 301.58 209.55 C 299.57 209.49 297.57 209.45 295.57 209.38 C 301.89 202.37 305.38 193.40 310.29 185.43 Z" />
<path fill="#ef3641" d=" M 332.47 185.47 C 337.96 185.48 343.45 185.41 348.93 185.55 C 347.64 187.24 345.66 188.77 345.66 191.09 C 345.40 196.05 344.16 200.96 344.45 205.95 C 345.01 207.15 345.68 208.30 346.45 209.40 C 342.96 209.44 339.47 209.49 335.99 209.54 C 338.00 207.13 339.28 204.20 339.34 201.03 C 339.49 196.47 340.74 192.00 340.45 187.43 C 337.63 186.40 336.57 189.50 335.23 191.30 C 331.69 197.37 328.09 203.41 324.79 209.61 C 324.12 209.63 322.79 209.65 322.13 209.66 C 321.18 201.59 321.25 193.30 318.85 185.47 C 321.95 185.46 325.06 185.46 328.16 185.49 C 324.52 189.75 326.63 195.69 326.99 200.68 C 329.77 197.10 332.19 193.18 333.75 188.91 C 333.51 187.70 332.92 186.60 332.47 185.47 Z" />
<path fill="#ef3641" d=" M 368.01 185.46 C 370.70 185.47 373.39 185.45 376.09 185.44 C 374.56 187.19 372.53 188.73 372.04 191.13 C 370.40 197.29 369.29 203.58 367.65 209.75 C 366.65 209.69 365.65 209.65 364.65 209.61 C 362.31 204.03 359.90 198.46 357.15 193.07 C 355.83 198.34 352.33 204.40 355.90 209.53 C 353.53 209.50 351.17 209.49 348.80 209.47 C 353.10 204.45 353.86 197.66 355.36 191.48 C 356.13 189.29 354.67 187.37 353.84 185.47 C 355.91 185.45 357.99 185.38 360.06 185.53 C 363.59 189.73 364.55 195.43 367.44 200.05 C 369.60 195.64 371.21 189.80 368.01 185.46 Z" />
<path fill="#ef3641" d=" M 385.49 185.67 C 388.87 184.88 392.37 185.34 395.80 185.48 C 395.68 188.11 395.49 190.74 395.13 193.36 C 393.98 191.33 393.15 189.07 391.55 187.34 C 389.28 186.88 386.51 187.00 385.01 189.04 C 381.79 192.87 380.00 198.02 380.52 203.04 C 380.53 205.85 382.99 208.58 385.91 208.38 C 388.23 205.16 388.17 200.79 385.08 198.12 C 388.67 198.31 392.27 198.32 395.87 198.17 C 393.27 201.10 392.54 204.99 391.92 208.73 C 387.13 210.38 381.42 211.14 377.07 207.98 C 373.78 205.07 373.94 200.15 375.25 196.32 C 376.74 191.43 380.65 187.33 385.49 185.67 Z" />
<path fill="#ef3641" d=" M 413.24 185.45 C 416.54 185.46 419.85 185.46 423.15 185.52 C 421.87 187.14 420.29 188.68 419.97 190.83 C 418.94 196.44 417.49 202.02 417.35 207.75 C 420.71 208.02 423.54 206.37 426.04 204.30 C 425.57 206.08 424.91 207.80 424.36 209.55 C 419.19 209.46 414.02 209.50 408.85 209.46 C 411.25 206.99 412.32 203.71 412.77 200.36 C 413.48 195.43 415.97 190.18 413.24 185.45 Z" />
<path fill="#ef3641" d=" M 431.07 185.41 C 434.39 185.47 437.70 185.46 441.02 185.48 C 439.43 187.42 437.67 189.44 437.42 192.06 C 436.60 197.21 435.44 202.33 434.97 207.54 C 436.59 207.48 438.24 207.59 439.84 207.20 C 441.45 205.92 442.78 204.31 444.26 202.88 C 443.69 205.07 443.68 207.64 441.97 209.34 C 436.89 209.74 431.78 209.40 426.69 209.44 C 431.17 205.09 430.44 198.42 432.03 192.85 C 432.93 190.30 432.11 187.76 431.07 185.41 Z" />
<path fill="#ef3641" d=" M 452.71 187.73 C 456.61 184.56 461.82 185.19 466.48 185.45 C 466.39 188.02 466.30 190.59 466.06 193.16 C 464.85 191.24 463.84 189.19 462.45 187.38 C 460.70 187.08 458.55 186.80 457.17 188.17 C 453.69 191.08 452.27 195.65 451.65 199.99 C 451.32 203.27 452.60 207.34 456.05 208.45 C 459.95 208.03 461.94 204.18 464.61 201.80 C 463.91 204.19 463.58 206.85 461.85 208.77 C 457.01 211.47 449.45 210.79 446.66 205.50 C 444.97 199.01 446.86 191.49 452.71 187.73 Z" />
<path fill="#ef3641" d=" M 178.18 185.45 C 182.79 185.81 187.93 184.42 192.07 187.00 C 194.90 190.19 193.44 195.76 190.26 198.25 C 187.89 200.42 184.52 200.24 181.54 200.54 C 181.25 203.62 180.79 206.94 182.97 209.50 C 179.58 209.50 176.20 209.50 172.82 209.46 C 176.25 205.92 176.38 200.84 177.42 196.31 C 178.20 192.75 178.80 189.09 178.18 185.45 Z" />
<path fill="#ef3641" d=" M 216.32 209.38 C 223.33 202.25 225.76 192.03 232.26 184.54 C 235.49 192.58 232.71 201.92 237.29 209.49 C 234.24 209.48 231.19 209.47 228.14 209.51 C 229.14 207.24 229.61 204.80 229.70 202.33 C 227.52 202.71 223.91 201.33 222.99 204.03 C 222.03 205.72 222.62 207.72 222.68 209.54 C 220.56 209.49 218.44 209.45 216.32 209.38 Z" />
<path fill="#ef3641" d=" M 243.21 185.48 C 246.36 185.46 249.51 185.47 252.66 185.53 C 251.48 187.31 249.98 189.00 249.62 191.17 C 248.49 196.65 247.14 202.16 247.32 207.81 C 251.23 208.27 253.85 205.49 256.24 202.85 C 255.67 205.09 254.99 207.31 254.28 209.52 C 249.05 209.50 243.81 209.51 238.58 209.48 C 241.14 206.95 242.12 203.49 242.64 200.04 C 243.36 195.23 245.62 190.17 243.21 185.48 Z" />
<path fill="#ef3641" d=" M 285.20 185.44 C 289.93 185.94 295.69 184.07 299.58 187.55 C 302.40 192.48 298.51 199.49 292.95 200.15 C 291.49 200.33 290.03 200.39 288.57 200.49 C 288.30 203.58 287.58 206.97 289.96 209.47 C 286.58 209.47 283.21 209.48 279.84 209.45 C 281.47 207.27 282.82 204.86 283.24 202.13 C 284.20 196.62 286.09 191.09 285.20 185.44 Z" />
<path fill="#ffffff" d=" M 184.62 186.79 C 188.83 187.61 188.08 192.76 186.79 195.72 C 186.27 197.68 183.85 197.69 182.40 198.66 C 182.73 194.64 183.60 190.69 184.62 186.79 Z" />
<path fill="#ffffff" d=" M 289.43 198.66 C 289.83 194.73 290.62 190.85 291.62 187.04 C 292.39 187.35 293.93 187.97 294.70 188.28 C 294.58 190.77 295.03 193.48 293.72 195.74 C 292.95 197.44 290.90 197.81 289.43 198.66 Z" />
<path fill="#ffffff" d=" M 225.27 200.52 C 226.32 198.24 227.35 195.96 228.37 193.67 C 228.76 195.85 229.14 198.03 229.51 200.21 C 228.09 200.32 226.68 200.42 225.27 200.52 Z" />
<path fill="#ffffff" d=" M 142.37 200.18 C 143.61 198.18 144.83 196.17 146.03 194.14 C 146.32 196.24 146.42 198.36 146.62 200.47 C 145.56 200.40 143.43 200.25 142.37 200.18 Z" />
<path fill="#ffffff" d=" M 304.36 200.43 C 305.39 198.25 306.63 196.17 308.13 194.28 C 308.31 196.25 308.44 198.22 308.44 200.20 C 307.42 200.26 305.38 200.37 304.36 200.43 Z" />
<path fill="#ef3641" d=" M 396.06 204.19 C 397.05 203.56 398.49 201.76 399.68 203.01 C 402.09 204.21 401.81 207.22 401.36 209.45 C 400.44 212.27 397.46 213.35 395.04 214.54 C 395.88 212.94 396.89 211.43 397.59 209.76 C 397.50 207.83 396.53 206.05 396.06 204.19 Z" />
</svg>
